# xmcd CD database file
#
# Track frame offsets:
#	150
#	17560
#	37775
#	56962
#	76847
#	100002
#	119680
#	140190
#	161735
#	182680
#
# Disc length: 2736 seconds
#
# Revision: 0
# Processed by: cddbd v1.5.1PL0 Copyright (c) Steve Scherf et al.
# Submitted via: CDex 1.51
#
DISCID=810aae0a
DTITLE=佐々木望 - I'm in The Mood
DYEAR=1996
DGENRE=JPop
TTITLE0=CANDY DANCE
TTITLE1=I'm in The Mood
TTITLE2=mama
TTITLE3=My Friend, My Love
TTITLE4=Silent Blue
TTITLE5=Sorry Midnight Angel
TTITLE6=Step by Step
TTITLE7=Marry Me Tonight
TTITLE8=You're my only Shooting Star
TTITLE9=Farewell, My Lovely
EXTD=YEAR: 1996
EXTT0=
EXTT1=
EXTT2=
EXTT3=
EXTT4=
EXTT5=
EXTT6=
EXTT7=
EXTT8=
EXTT9=
PLAYORDER=
